<svg xmlns="http://www.w3.org/2000/svg" viewBox="0 0 512 512">
  <rect width="512" height="512" fill="#0b1c30" rx="112" />
  <path fill="#14b8a6" d="M256 80c-3.1 0-6.1 1.2-8.4 3.4l-112 104c-3.7 3.5-5.6 8.7-4.9 13.8 6.9 49.3 26.6 138.8 120.7 217.1 2.7 2.3 6.6 2.3 9.3 0 94.1-78.3 113.8-167.8 120.7-217.1.7-5.1-1.2-10.3-4.9-13.8l-112-104c-2.3-2.2-5.3-3.4-8.4-3.4zm0 64c26.5 0 48 21.5 48 48v16h16c17.7 0 32 14.3 32 32v96c0 17.7-14.3 32-32 32H192c-17.7 0-32-14.3-32-32v-96c0-17.7 14.3-32 32-32h16v-16c0-26.5 21.5-48 48-48zm0 32c-8.8 0-16 7.2-16 16v16h32v-16c0-8.8-7.2-16-16-16zm-16 96v32h32v-32h-32z"/>
</svg>
